<svg width="75" height="75" viewBox="0 0 75 75" fill="none" xmlns="http://www.w3.org/2000/svg">
<rect width="75" height="75" rx="5" fill="#007042"/>
<path d="M24 25H52H24ZM48 21H28L26 25H50L48 21ZM25.62 35L26.38 47H49.62L50.38 35H25.62ZM49.38 35L50 25H26L26.62 35H49.38ZM27.38 47L27.88 55.12C27.9106 55.6294 28.1348 56.1078 28.5066 56.4573C28.8784 56.8068 29.3697 57.0009 29.88 57H46.12C46.6303 57.0009 47.1216 56.8068 47.4934 56.4573C47.8652 56.1078 48.0894 55.6294 48.12 55.12L48.62 47H27.38Z" stroke="white" stroke-width="4" stroke-linecap="round" stroke-linejoin="round"/>
</svg>
