<svg width="79" height="79" viewBox="0 0 79 79" fill="none" xmlns="http://www.w3.org/2000/svg">
<rect width="79" height="79" rx="5" fill="#007042"/>
<path d="M46.3333 42.2083V28.5417H29.25V42.2083C29.25 43.1145 29.61 43.9835 30.2507 44.6243C30.8915 45.265 31.7605 45.625 32.6667 45.625H42.9167C43.8228 45.625 44.6919 45.265 45.3326 44.6243C45.9734 43.9835 46.3333 43.1145 46.3333 42.2083ZM27.5417 25.125H53.1667C54.0728 25.125 54.9419 25.485 55.5826 26.1257C56.2234 26.7665 56.5833 27.6355 56.5833 28.5417V33.6667C56.5833 34.5728 56.2234 35.4419 55.5826 36.0826C54.9419 36.7234 54.0728 37.0833 53.1667 37.0833H49.75V42.2083C49.75 44.0206 49.0301 45.7587 47.7486 47.0402C46.4671 48.3217 44.729 49.0417 42.9167 49.0417H32.6667C30.8543 49.0417 29.1163 48.3217 27.8348 47.0402C26.5533 45.7587 25.8333 44.0206 25.8333 42.2083V26.8333C25.8333 26.3803 26.0133 25.9457 26.3337 25.6254C26.6541 25.305 27.0886 25.125 27.5417 25.125ZM49.75 28.5417V33.6667H53.1667V28.5417H49.75ZM22.4167 52.4583H53.1667V55.875H22.4167V52.4583Z" fill="white"/>
</svg>
