<svg width="75" height="75" viewBox="0 0 75 75" fill="none" xmlns="http://www.w3.org/2000/svg">
<rect width="75" height="75" rx="5" fill="#007042"/>
<path d="M30.3333 29.6667V33M22 51.3333V46.3333H52V51.3333C52 51.7754 51.8244 52.1993 51.5118 52.5118C51.1993 52.8244 50.7754 53 50.3333 53H23.6667C23.2246 53 22.8007 52.8244 22.4882 52.5118C22.1756 52.1993 22 51.7754 22 51.3333ZM25.3333 28C25.3333 28.442 25.5089 28.866 25.8215 29.1785C26.134 29.4911 26.558 29.6667 27 29.6667H40.3333V46.3333H52V24.6667C52 24.2246 51.8244 23.8007 51.5118 23.4882C51.1993 23.1756 50.7754 23 50.3333 23H25.3333V28ZM30.3333 46.3333C31.2174 46.3333 32.0652 45.9821 32.6904 45.357C33.3155 44.7319 33.6667 43.8841 33.6667 43V39.6667H27V43C27 43.8841 27.3512 44.7319 27.9763 45.357C28.6014 45.9821 29.4493 46.3333 30.3333 46.3333Z" stroke="white" stroke-width="3" stroke-linecap="round" stroke-linejoin="round"/>
</svg>
