<svg width="75" height="75" viewBox="0 0 75 75" fill="none" xmlns="http://www.w3.org/2000/svg">
<rect width="75" height="75" rx="5" fill="#007042"/>
<path d="M56 31H20M20 49V25C20 24.4696 20.2107 23.9609 20.5858 23.5858C20.9609 23.2107 21.4696 23 22 23H54C54.5304 23 55.0391 23.2107 55.4142 23.5858C55.7893 23.9609 56 24.4696 56 25V49C56 49.5304 55.7893 50.0391 55.4142 50.4142C55.0391 50.7893 54.5304 51 54 51H22C21.4696 51 20.9609 50.7893 20.5858 50.4142C20.2107 50.0391 20 49.5304 20 49ZM36 43H28H36Z" stroke="white" stroke-width="4" stroke-linecap="round" stroke-linejoin="round"/>
</svg>
